<svg xmlns="http://www.w3.org/2000/svg" width="148" height="148" fill="none">
  <path fill="#2D31A6" d="M148 74c0 40.869-33.131 74-74 74-40.87 0-74-33.131-74-74h148ZM0 0h3.61v74H0V0ZM7.22 0h3.61v74H7.22V0ZM14.44 0h3.609v74h-3.61V0ZM21.659 0h3.61v74h-3.61V0ZM28.878 0h3.61v74h-3.61V0ZM36.098 0h3.61v74h-3.61V0ZM43.317 0h3.61v74h-3.61V0ZM50.537 0h3.61v74h-3.61V0ZM57.756 0h3.61v74h-3.61V0ZM64.976 0h3.61v74h-3.61V0ZM72.195 0h3.61v74h-3.61V0ZM79.415 0h3.61v74h-3.61V0ZM86.634 0h3.61v74h-3.61V0ZM93.854 0h3.61v74h-3.61V0ZM101.073 0h3.61v74h-3.61V0ZM108.293 0h3.61v74h-3.61V0ZM115.512 0h3.61v74h-3.61V0ZM122.732 0h3.61v74h-3.61V0ZM129.951 0h3.61v74h-3.61V0ZM137.171 0h3.61v74h-3.61V0ZM144.39 0H148v74h-3.61V0Z"/>
</svg>
