<svg xmlns="http://www.w3.org/2000/svg" width="296" height="296" fill="none">
  <path fill="#6172F3" fill-rule="evenodd" d="M151.61 51.105A73.95 73.95 0 0 0 148 74a73.95 73.95 0 0 0 3.61 22.895v-45.79Zm7.219 61.457a73.67 73.67 0 0 1-3.609-6.642V42.08a73.705 73.705 0 0 1 3.609-6.642v77.124Zm7.22 9.87a74.592 74.592 0 0 1-3.61-4.509V30.077a74.314 74.314 0 0 1 3.61-4.509v96.864Zm7.219 7.258a74.838 74.838 0 0 1-3.609-3.38V21.69a74.53 74.53 0 0 1 3.609-3.38v111.38Zm7.22 5.578a74.231 74.231 0 0 1-3.61-2.612V15.344a74.438 74.438 0 0 1 3.61-2.612v122.536Zm7.219 4.323a74.326 74.326 0 0 1-3.609-2.021V10.43a74.074 74.074 0 0 1 3.609-2.022v131.183Zm7.22 3.3a74.26 74.26 0 0 1-3.61-1.532V6.641a73.39 73.39 0 0 1 3.61-1.532v137.782Zm7.219 2.415a73.069 73.069 0 0 1-3.609-1.103V3.797a73.409 73.409 0 0 1 3.609-1.103v142.612Zm7.22 1.62a74.044 74.044 0 0 1-3.61-.714V1.788a73.63 73.63 0 0 1 3.61-.714v145.852Zm7.219.879a75.085 75.085 0 0 1-3.609-.35V.545a74.276 74.276 0 0 1 3.609-.35v147.61Zm7.22.173a72.243 72.243 0 0 1-3.61 0V.022a75.46 75.46 0 0 1 3.61 0v147.956Zm7.219-.523a73.827 73.827 0 0 1-3.609.35V.195c1.211.088 2.415.204 3.609.35v146.91Zm7.22-1.243a74.044 74.044 0 0 1-3.61.714V1.074a73.63 73.63 0 0 1 3.61.714v144.424Zm7.219-2.009c-1.19.397-2.393.766-3.609 1.103V2.694a73.41 73.41 0 0 1 3.609 1.103v140.406Zm7.22-2.844a74.26 74.26 0 0 1-3.61 1.532V5.109c1.22.48 2.423.99 3.61 1.532v134.718Zm7.219-3.789a75.197 75.197 0 0 1-3.609 2.022V8.408a74.074 74.074 0 0 1 3.609 2.023V137.57Zm7.22-4.914a74.231 74.231 0 0 1-3.61 2.612V12.732a74.438 74.438 0 0 1 3.61 2.612v117.312Zm7.219-6.346a74.838 74.838 0 0 1-3.609 3.38V18.31a74.53 74.53 0 0 1 3.609 3.38v104.62Zm7.22-8.387a74.592 74.592 0 0 1-3.61 4.509V25.568a74.314 74.314 0 0 1 3.61 4.51v87.845Zm7.219-12.003a73.67 73.67 0 0 1-3.609 6.642V35.438a73.705 73.705 0 0 1 3.609 6.642v63.84ZM296 74a73.95 73.95 0 0 1-3.61 22.895v-45.79A73.95 73.95 0 0 1 296 74Z" clip-rule="evenodd"/>
  <path fill="#6172F3" d="M296 74c0 40.869-33.131 74-74 74V0c40.869 0 74 33.13 74 74Z"/>
  <path fill="#444CE7" d="M0 0c40.87 0 74 33.13 74 74 0-40.87 33.131-74 74-74v74c0 40.869-33.13 74-74 74-40.869 0-74-33.131-74-74V0Z"/>
  <path fill="#2D31A6" d="M74 148c40.869 0 74 33.131 74 74s-33.131 74-74 74V148ZM0 296v-3.61h74V296H0ZM0 288.78v-3.609h74v3.609H0ZM0 281.561v-3.61h74v3.61H0ZM0 274.341v-3.609h74v3.609H0ZM0 267.122v-3.61h74v3.61H0ZM0 259.902v-3.609h74v3.609H0ZM0 252.683v-3.61h74v3.61H0ZM0 245.463v-3.609h74v3.609H0ZM0 238.244v-3.61h74v3.61H0ZM0 231.024v-3.609h74v3.609H0ZM0 223.805v-3.61h74v3.61H0ZM0 216.585v-3.609h74v3.609H0ZM0 209.366v-3.61h74v3.61H0ZM0 202.146v-3.609h74v3.609H0ZM0 194.927v-3.61h74v3.61H0ZM0 187.707v-3.61h74v3.61H0ZM0 180.488v-3.61h74v3.61H0ZM0 173.268v-3.61h74v3.61H0ZM0 166.049v-3.61h74v3.61H0ZM0 158.829v-3.61h74v3.61H0ZM0 151.61V148h74v3.61H0Z"/>
  <path fill="#8098F9" d="M222 296c0-7.99-1.267-15.685-3.61-22.895V296H222ZM211.171 257.438a73.806 73.806 0 0 1 3.609 6.642V296h-3.609v-38.562ZM203.951 247.569a73.973 73.973 0 0 1 3.61 4.509V296h-3.61v-48.431ZM196.732 240.31a74.838 74.838 0 0 1 3.609 3.38V296h-3.609v-55.69ZM189.512 234.732a74.231 74.231 0 0 1 3.61 2.612V296h-3.61v-61.268ZM182.293 230.409a73.508 73.508 0 0 1 3.609 2.022V296h-3.609v-65.591ZM175.073 227.109c1.22.48 2.423.991 3.61 1.532V296h-3.61v-68.891ZM167.854 224.694a74.16 74.16 0 0 1 3.609 1.103V296h-3.609v-71.306ZM160.634 223.075c1.214.208 2.417.447 3.61.714V296h-3.61v-72.925ZM153.415 222.195c1.211.088 2.415.205 3.609.35V296h-3.609v-73.805ZM148 222.022c1.2-.029.605-.029 1.805 0V296H148v-73.978Z"/>
  <path fill="#8098F9" fill-rule="evenodd" d="M296 296c0-81.738-66.262-148-148-148v37c61.304 0 111 49.696 111 111h37Z" clip-rule="evenodd"/>
</svg>
