<svg xmlns="http://www.w3.org/2000/svg" width="148" height="148" fill="none">
  <path fill="#6172F3" d="M0 0h148L0 148V0Z"/>
  <path fill="#6172F3" d="M3.61 51.105A73.943 73.943 0 0 0 0 74c0 7.99 1.267 15.686 3.61 22.895v-45.79ZM10.83 112.562a73.782 73.782 0 0 1-3.61-6.642V42.08a73.818 73.818 0 0 1 3.61-6.642v77.124ZM18.049 122.432a74.628 74.628 0 0 1-3.61-4.509V30.077a74.35 74.35 0 0 1 3.61-4.509v96.864ZM25.268 129.69a74.715 74.715 0 0 1-3.61-3.38V21.69a74.408 74.408 0 0 1 3.61-3.38v111.38ZM32.488 135.268a74.031 74.031 0 0 1-3.61-2.612V15.344a74.237 74.237 0 0 1 3.61-2.612v122.536ZM39.707 139.591a73.253 73.253 0 0 1-3.61-2.022V10.431a73.815 73.815 0 0 1 3.61-2.023v131.183ZM46.927 142.891a74.376 74.376 0 0 1-3.61-1.532V6.641a73.504 73.504 0 0 1 3.61-1.532v137.782ZM54.146 145.306a73.095 73.095 0 0 1-3.61-1.103V3.797a73.435 73.435 0 0 1 3.61-1.103v142.612ZM61.366 146.926a72.865 72.865 0 0 1-3.61-.715V1.788a73.619 73.619 0 0 1 3.61-.714v145.852ZM68.585 147.805a75.13 75.13 0 0 1-3.61-.35V.545a74.321 74.321 0 0 1 3.61-.35v147.61ZM75.805 147.978a72.212 72.212 0 0 1-3.61 0V.022a75.427 75.427 0 0 1 3.61 0v147.956ZM83.024 147.455a75.13 75.13 0 0 1-3.61.35V.195a74.32 74.32 0 0 1 3.61.35v146.91ZM90.244 146.211a72.846 72.846 0 0 1-3.61.715V1.074a73.6 73.6 0 0 1 3.61.714v144.423ZM97.463 144.203c-1.19.397-2.393.766-3.61 1.103V2.694c1.217.337 2.42.706 3.61 1.103v140.406ZM104.683 141.359a74.26 74.26 0 0 1-3.61 1.532V5.109a73.4 73.4 0 0 1 3.61 1.532v134.718ZM111.902 137.569a73.508 73.508 0 0 1-3.609 2.022V8.408a74.074 74.074 0 0 1 3.609 2.023v127.138ZM119.122 132.656a74.231 74.231 0 0 1-3.61 2.612V12.732a74.438 74.438 0 0 1 3.61 2.612v117.312ZM126.341 126.31a74.838 74.838 0 0 1-3.609 3.38V18.31a74.53 74.53 0 0 1 3.609 3.38v104.62ZM133.561 117.923a74.592 74.592 0 0 1-3.61 4.509V25.568a74.314 74.314 0 0 1 3.61 4.51v87.845ZM140.78 105.92a73.67 73.67 0 0 1-3.609 6.642V35.438a73.705 73.705 0 0 1 3.609 6.642v63.84ZM148 74a73.95 73.95 0 0 1-3.61 22.895v-45.79A73.95 73.95 0 0 1 148 74Z"/>
</svg>
