<svg xmlns="http://www.w3.org/2000/svg" width="148" height="148" fill="none">
  <path fill="#2D31A6" d="M148 0h-3.61v148H148V0ZM140.78 0h-3.609v148h3.609V0ZM133.561 0h-3.61v148h3.61V0ZM126.341 0h-3.609v148h3.609V0ZM119.122 0h-3.61v148h3.61V0ZM111.902 0h-3.609v148h3.609V0ZM104.683 0h-3.61v148h3.61V0ZM97.463 0h-3.61v148h3.61V0ZM90.244 0h-3.61v148h3.61V0ZM83.024 0h-3.61v148h3.61V0ZM75.805 0h-3.61v148h3.61V0ZM68.585 0h-3.61v148h3.61V0ZM61.366 0h-3.61v148h3.61V0ZM54.146 0h-3.61v148h3.61V0ZM46.927 0h-3.61v148h3.61V0ZM39.707 0h-3.61v148h3.61V0ZM32.488 0h-3.61v148h3.61V0ZM25.268 0h-3.61v148h3.61V0ZM18.049 0h-3.61v148h3.61V0ZM10.83 0H7.22v148h3.61V0ZM3.61 0H0v148h3.61V0Z"/>
  <path fill="#2D31A6" d="M112.85 37h-74v74h74V37Z"/>
</svg>
