<svg xmlns="http://www.w3.org/2000/svg" width="148" height="148" fill="none">
  <path fill="#6172F3" fill-rule="evenodd" d="M3.61 51.105A73.943 73.943 0 0 0 0 74c0 7.99 1.267 15.686 3.61 22.895v-45.79Zm7.22 61.457a73.782 73.782 0 0 1-3.61-6.642V42.08a73.818 73.818 0 0 1 3.61-6.642v77.124Zm7.219 9.87a74.667 74.667 0 0 1-3.61-4.509V30.077a74.389 74.389 0 0 1 3.61-4.509v96.864Zm7.22 7.258a74.715 74.715 0 0 1-3.61-3.38V21.69a74.408 74.408 0 0 1 3.61-3.38v111.38Zm7.219 5.578a74.031 74.031 0 0 1-3.61-2.612V15.344a74.237 74.237 0 0 1 3.61-2.612v122.536Zm7.22 4.323a74.113 74.113 0 0 1-3.61-2.021V10.43a73.862 73.862 0 0 1 3.61-2.022v131.183Zm7.219 3.3a74.376 74.376 0 0 1-3.61-1.532V6.641a73.504 73.504 0 0 1 3.61-1.532v137.782Zm7.22 2.415a73.095 73.095 0 0 1-3.61-1.103V3.797a73.435 73.435 0 0 1 3.61-1.103v142.612Zm7.219 1.62a74.013 74.013 0 0 1-3.61-.714V1.788a73.6 73.6 0 0 1 3.61-.714v145.852Zm7.22.879a75.13 75.13 0 0 1-3.61-.35V.545a74.321 74.321 0 0 1 3.61-.35v147.61Zm7.219.173a72.212 72.212 0 0 1-3.61 0V.022a75.427 75.427 0 0 1 3.61 0v147.956Zm7.22-.523a73.871 73.871 0 0 1-3.61.35V.195c1.211.088 2.415.204 3.61.35v146.91Zm7.219-1.243a74.013 74.013 0 0 1-3.61.714V1.074a73.6 73.6 0 0 1 3.61.714v144.424Zm7.22-2.009c-1.19.397-2.394.766-3.61 1.103V2.694c1.216.337 2.42.706 3.61 1.103v140.406Zm7.219-2.844a74.26 74.26 0 0 1-3.61 1.532V5.109c1.22.48 2.423.99 3.61 1.532v134.718Zm7.219-3.789a75.197 75.197 0 0 1-3.609 2.022V8.408a74.074 74.074 0 0 1 3.609 2.023V137.57Zm7.22-4.914a74.231 74.231 0 0 1-3.61 2.612V12.732a74.438 74.438 0 0 1 3.61 2.612v117.312Zm7.219-6.346a74.838 74.838 0 0 1-3.609 3.38V18.31a74.53 74.53 0 0 1 3.609 3.38v104.62Zm7.22-8.387a74.592 74.592 0 0 1-3.61 4.509V25.568a74.314 74.314 0 0 1 3.61 4.51v87.845Zm7.219-12.003a73.67 73.67 0 0 1-3.609 6.642V35.438a73.705 73.705 0 0 1 3.609 6.642v63.84ZM148 74a73.95 73.95 0 0 1-3.61 22.895v-45.79A73.95 73.95 0 0 1 148 74Z" clip-rule="evenodd"/>
  <path fill="#6172F3" d="M148 74c0 40.869-33.131 74-74 74V0c40.869 0 74 33.13 74 74Z"/>
</svg>
