<svg xmlns="http://www.w3.org/2000/svg" width="148" height="148" fill="none">
  <path fill="#A4BCFD" fill-rule="evenodd" d="M74 148c40.869 0 74-33.131 74-74 0-40.87-33.131-74-74-74C33.13 0 0 33.13 0 74c0 40.869 33.13 74 74 74Zm0-37c20.434 0 37-16.566 37-37S94.434 37 74 37c-20.435 0-37 16.566-37 37s16.565 37 37 37Z" clip-rule="evenodd"/>
  <path fill="#A4BCFD" d="M39.707 60.081A36.895 36.895 0 0 0 37 74c0 4.923.962 9.622 2.707 13.919V60.08ZM46.927 99.22a37.175 37.175 0 0 1-3.61-4.536V53.316a37.167 37.167 0 0 1 3.61-4.536v50.44ZM54.146 105.228a37.205 37.205 0 0 1-3.61-2.618V45.39a37.116 37.116 0 0 1 3.61-2.618v62.456ZM61.366 108.787a36.984 36.984 0 0 1-3.61-1.534V40.747a36.789 36.789 0 0 1 3.61-1.534v69.574ZM68.585 110.607a37.035 37.035 0 0 1-3.61-.715V38.108a36.799 36.799 0 0 1 3.61-.715v73.214ZM75.805 110.957a38.582 38.582 0 0 1-3.61 0V37.043a37.647 37.647 0 0 1 3.61 0v73.914ZM83.024 109.892a37.043 37.043 0 0 1-3.61.715V37.393c1.224.18 2.429.42 3.61.715v71.784ZM90.244 107.253a36.986 36.986 0 0 1-3.61 1.534V39.213c1.235.449 2.44.962 3.61 1.534v66.506ZM97.463 102.61a37.038 37.038 0 0 1-3.61 2.618V42.772c1.258.8 2.463 1.675 3.61 2.618v57.22ZM104.683 94.684a37.185 37.185 0 0 1-3.61 4.536V48.78a37.185 37.185 0 0 1 3.61 4.536v41.368ZM108.293 60.081A36.908 36.908 0 0 1 111 74c0 4.923-.962 9.622-2.707 13.919V60.08Z"/>
</svg>
