<svg xmlns="http://www.w3.org/2000/svg" width="148" height="148" fill="none">
  <path fill="#8098F9" d="M74 148c0-7.99-1.266-15.685-3.61-22.895V148H74ZM63.17 109.438a73.939 73.939 0 0 1 3.61 6.642V148h-3.61v-38.562ZM55.951 99.569a74.211 74.211 0 0 1 3.61 4.509V148h-3.61V99.569ZM48.732 92.31a74.459 74.459 0 0 1 3.61 3.38V148h-3.61V92.31ZM41.512 86.732a74.187 74.187 0 0 1 3.61 2.612V148h-3.61V86.732ZM34.293 82.409a73.877 73.877 0 0 1 3.61 2.022V148h-3.61V82.409ZM27.073 79.11c1.22.479 2.423.99 3.61 1.531V148h-3.61V79.11ZM19.854 76.694c1.216.338 2.42.706 3.61 1.103V148h-3.61V76.694ZM12.634 75.075c1.214.208 2.417.447 3.61.714V148h-3.61V75.075ZM5.415 74.195c1.211.088 2.415.205 3.61.35V148h-3.61V74.195ZM0 74.022c1.2-.029.605-.029 1.805 0V148H0V74.022Z"/>
  <path fill="#8098F9" fill-rule="evenodd" d="M148 148C148 66.262 81.738 0 0 0v37c61.304 0 111 49.696 111 111h37Z" clip-rule="evenodd"/>
</svg>
