<svg width="24" height="24" viewBox="0 0 24 24" fill="none" xmlns="http://www.w3.org/2000/svg">
<g clip-path="url(#clip0_5069_37118)">
<path d="M11.9372 7.24107C11.5601 7.24107 11.1916 7.12927 10.8781 6.91981C10.5646 6.71035 10.3203 6.41263 10.176 6.06431C10.0317 5.71599 9.99398 5.33271 10.0675 4.96293C10.1411 4.59316 10.3226 4.25349 10.5892 3.9869C10.8558 3.72031 11.1955 3.53875 11.5653 3.4652C11.935 3.39165 12.3183 3.4294 12.6666 3.57368C13.015 3.71796 13.3127 3.96229 13.5221 4.27577C13.7316 4.58925 13.8434 4.9578 13.8434 5.33482C13.8429 5.84023 13.6419 6.32477 13.2845 6.68215C12.9271 7.03952 12.4426 7.24053 11.9372 7.24107Z" fill="#444ce7"/>
<path d="M17.9282 7.26826L17.9129 7.27234L17.8986 7.27677C17.8646 7.2863 17.8305 7.29651 17.7965 7.30706C17.163 7.49292 14.0885 8.35958 11.9225 8.35958C9.90973 8.35958 7.11333 7.6107 6.21875 7.35642C6.12972 7.32199 6.0388 7.29267 5.94643 7.2686C5.29967 7.09839 4.85714 7.75537 4.85714 8.35584C4.85714 8.95052 5.39157 9.23374 5.93111 9.43696V9.44649L9.17242 10.4588C9.50363 10.5858 9.59213 10.7155 9.63536 10.8278C9.77595 11.1883 9.66362 11.9021 9.62379 12.1513L9.42636 13.6831L8.3306 19.6807C8.3272 19.697 8.32414 19.7137 8.32141 19.7307L8.31358 19.7739C8.23461 20.3237 8.63833 20.8571 9.40287 20.8571C10.0701 20.8571 10.3645 20.3965 10.4922 19.7699C10.4922 19.7699 11.4453 14.4061 11.9218 14.4061C12.3984 14.4061 13.3801 19.7699 13.3801 19.7699C13.5078 20.3965 13.8022 20.8571 14.4694 20.8571C15.236 20.8571 15.6397 20.3213 15.5587 19.7699C15.5515 19.7229 15.543 19.6766 15.5328 19.6316L14.4221 13.6838L14.225 12.152C14.0824 11.2598 14.1971 10.965 14.2359 10.8959C14.2369 10.8943 14.2378 10.8926 14.2386 10.8908C14.2754 10.8227 14.4429 10.6702 14.8336 10.5235L17.8727 9.46112C17.8914 9.45615 17.9098 9.45025 17.9279 9.44342C18.4725 9.23918 19.0172 8.95665 19.0172 8.35652C19.0172 7.75639 18.575 7.0984 17.9282 7.26826Z" fill="#444ce7"/>
<path fill-rule="evenodd" clip-rule="evenodd" d="M12 21.7143C17.3651 21.7143 21.7143 17.3651 21.7143 12C21.7143 6.63495 17.3651 2.28571 12 2.28571C6.63495 2.28571 2.28571 6.63495 2.28571 12C2.28571 17.3651 6.63495 21.7143 12 21.7143ZM12 24C18.6274 24 24 18.6274 24 12C24 5.37258 18.6274 0 12 0C5.37258 0 0 5.37258 0 12C0 18.6274 5.37258 24 12 24Z" fill="#444ce7"/>
</g>
<defs>
<clipPath id="clip0_5069_37118">
<rect width="24" height="24" fill="white"/>
</clipPath>
</defs>
</svg>
